<mxfile host="app.diagrams.net" agent="Mozilla/5.0 (Windows NT 10.0; Win64; x64) AppleWebKit/537.36 (KHTML, like Gecko) Chrome/140.0.0.0 Safari/537.36" version="28.2.5">
  <diagram id="Il9Fi1deLX2TvpJTLiLy" name="Página-1">
    <mxGraphModel dx="2328" dy="556" grid="0" gridSize="10" guides="1" tooltips="1" connect="1" arrows="1" fold="1" page="0" pageScale="1" pageWidth="827" pageHeight="1169" math="0" shadow="0">
      <root>
        <mxCell id="0" />
        <mxCell id="1" parent="0" />
        <mxCell id="XDs6qOpa_2APzOStyn8Z-67" value="" style="group" parent="1" vertex="1" connectable="0">
          <mxGeometry x="-378.25" y="448" width="166" height="97.72999999999996" as="geometry" />
        </mxCell>
        <mxCell id="XDs6qOpa_2APzOStyn8Z-58" value="" style="ellipse;shape=cloud;whiteSpace=wrap;html=1;strokeWidth=2;" parent="XDs6qOpa_2APzOStyn8Z-67" vertex="1">
          <mxGeometry x="28" width="103.5" height="69" as="geometry" />
        </mxCell>
        <mxCell id="XDs6qOpa_2APzOStyn8Z-59" value="&lt;span style=&quot;font-size: 15px;&quot;&gt;Escolher Arquivo de Vídeo&lt;/span&gt;" style="text;whiteSpace=wrap;html=1;labelBackgroundColor=none;align=center;" parent="XDs6qOpa_2APzOStyn8Z-67" vertex="1">
          <mxGeometry y="67.44999999999999" width="166" height="30.28" as="geometry" />
        </mxCell>
        <mxCell id="XDs6qOpa_2APzOStyn8Z-68" value="" style="group" parent="1" vertex="1" connectable="0">
          <mxGeometry x="-556.53" y="460.09000000000003" width="166" height="82.18999999999994" as="geometry" />
        </mxCell>
        <mxCell id="XDs6qOpa_2APzOStyn8Z-55" value="" style="shape=actor;whiteSpace=wrap;html=1;strokeWidth=2;" parent="XDs6qOpa_2APzOStyn8Z-68" vertex="1">
          <mxGeometry x="63.95999999999998" width="38.07" height="51.91" as="geometry" />
        </mxCell>
        <mxCell id="XDs6qOpa_2APzOStyn8Z-56" value="&lt;span style=&quot;font-size: 15px;&quot;&gt;Obter um vídeo base de interesse&lt;/span&gt;" style="text;whiteSpace=wrap;html=1;labelBackgroundColor=none;align=center;" parent="XDs6qOpa_2APzOStyn8Z-68" vertex="1">
          <mxGeometry y="51.90999999999997" width="166" height="30.28" as="geometry" />
        </mxCell>
        <mxCell id="XDs6qOpa_2APzOStyn8Z-69" value="" style="group" parent="1" vertex="1" connectable="0">
          <mxGeometry x="-305" y="316" width="245" height="92.28" as="geometry" />
        </mxCell>
        <mxCell id="XDs6qOpa_2APzOStyn8Z-49" value="&lt;span style=&quot;color: rgb(0, 0, 0); font-family: Helvetica; font-style: normal; font-variant-ligatures: normal; font-variant-caps: normal; letter-spacing: normal; orphans: 2; text-align: center; text-indent: 0px; text-transform: none; widows: 2; word-spacing: 0px; -webkit-text-stroke-width: 0px; white-space: normal; text-decoration-thickness: initial; text-decoration-style: initial; text-decoration-color: initial; float: none; display: inline !important;&quot;&gt;&lt;font style=&quot;font-size: 13px;&quot;&gt;&lt;b style=&quot;&quot;&gt;Enviar Vídeo Base&lt;/b&gt;&lt;/font&gt;&lt;/span&gt;" style="text;whiteSpace=wrap;html=1;labelBackgroundColor=none;" parent="XDs6qOpa_2APzOStyn8Z-69" vertex="1">
          <mxGeometry x="65" y="62" width="125" height="30.28" as="geometry" />
        </mxCell>
        <mxCell id="XDs6qOpa_2APzOStyn8Z-57" value="" style="ellipse;shape=cloud;whiteSpace=wrap;html=1;strokeWidth=2;" parent="XDs6qOpa_2APzOStyn8Z-69" vertex="1">
          <mxGeometry x="67.75" width="103.5" height="69" as="geometry" />
        </mxCell>
        <mxCell id="XDs6qOpa_2APzOStyn8Z-81" style="edgeStyle=orthogonalEdgeStyle;rounded=0;orthogonalLoop=1;jettySize=auto;html=1;exitX=0.875;exitY=0.5;exitDx=0;exitDy=0;exitPerimeter=0;entryX=0;entryY=0.5;entryDx=0;entryDy=0;" parent="1" source="XDs6qOpa_2APzOStyn8Z-58" target="XDs6qOpa_2APzOStyn8Z-170" edge="1">
          <mxGeometry relative="1" as="geometry">
            <mxPoint x="-40.78699999999981" y="481.539" as="targetPoint" />
          </mxGeometry>
        </mxCell>
        <mxCell id="XDs6qOpa_2APzOStyn8Z-117" value="&lt;font style=&quot;font-size: 15px;&quot;&gt;[]&amp;gt;&amp;gt;&lt;/font&gt;" style="edgeLabel;html=1;align=center;verticalAlign=middle;resizable=0;points=[];" parent="XDs6qOpa_2APzOStyn8Z-81" vertex="1" connectable="0">
          <mxGeometry x="-0.0514" y="2" relative="1" as="geometry">
            <mxPoint as="offset" />
          </mxGeometry>
        </mxCell>
        <mxCell id="XDs6qOpa_2APzOStyn8Z-84" style="edgeStyle=orthogonalEdgeStyle;rounded=0;orthogonalLoop=1;jettySize=auto;html=1;exitX=0.9;exitY=0.5;exitDx=0;exitDy=0;exitPerimeter=0;entryX=0.16;entryY=0.55;entryDx=0;entryDy=0;entryPerimeter=0;" parent="1" source="XDs6qOpa_2APzOStyn8Z-55" target="XDs6qOpa_2APzOStyn8Z-58" edge="1">
          <mxGeometry relative="1" as="geometry" />
        </mxCell>
        <mxCell id="XDs6qOpa_2APzOStyn8Z-115" value="&amp;gt;&amp;gt;" style="edgeLabel;html=1;align=center;verticalAlign=middle;resizable=0;points=[];fontSize=15;" parent="XDs6qOpa_2APzOStyn8Z-84" vertex="1" connectable="0">
          <mxGeometry x="-0.0748" y="2" relative="1" as="geometry">
            <mxPoint as="offset" />
          </mxGeometry>
        </mxCell>
        <mxCell id="XDs6qOpa_2APzOStyn8Z-89" value="" style="group" parent="1" vertex="1" connectable="0">
          <mxGeometry x="216" y="614" width="166" height="75.45999999999992" as="geometry" />
        </mxCell>
        <mxCell id="XDs6qOpa_2APzOStyn8Z-90" value="" style="strokeWidth=2;html=1;shape=mxgraph.flowchart.multi-document;whiteSpace=wrap;" parent="XDs6qOpa_2APzOStyn8Z-89" vertex="1">
          <mxGeometry x="46.5" width="66.27" height="45.18" as="geometry" />
        </mxCell>
        <mxCell id="XDs6qOpa_2APzOStyn8Z-91" value="&lt;span style=&quot;font-size: 15px;&quot;&gt;Confirmar Conclusão&lt;/span&gt;" style="text;whiteSpace=wrap;html=1;labelBackgroundColor=none;align=center;" parent="XDs6qOpa_2APzOStyn8Z-89" vertex="1">
          <mxGeometry y="45.17999999999995" width="166" height="30.28" as="geometry" />
        </mxCell>
        <mxCell id="XDs6qOpa_2APzOStyn8Z-92" value="" style="group" parent="1" vertex="1" connectable="0">
          <mxGeometry x="29" y="615" width="166" height="72.27999999999997" as="geometry" />
        </mxCell>
        <mxCell id="XDs6qOpa_2APzOStyn8Z-94" value="&lt;span style=&quot;font-size: 15px;&quot;&gt;Ler Caixa de Diálogo&lt;/span&gt;" style="text;whiteSpace=wrap;html=1;labelBackgroundColor=none;align=center;" parent="XDs6qOpa_2APzOStyn8Z-92" vertex="1">
          <mxGeometry y="42" width="166" height="30.28" as="geometry" />
        </mxCell>
        <mxCell id="Of0nD8nqhDQsk5s1kzBt-55" value="" style="shape=actor;whiteSpace=wrap;html=1;strokeWidth=2;" vertex="1" parent="XDs6qOpa_2APzOStyn8Z-92">
          <mxGeometry x="63.96999999999994" y="-4.179999999999886" width="38.07" height="51.91" as="geometry" />
        </mxCell>
        <mxCell id="XDs6qOpa_2APzOStyn8Z-95" value="" style="group" parent="1" vertex="1" connectable="0">
          <mxGeometry x="118.25" y="444" width="166" height="97.72999999999996" as="geometry" />
        </mxCell>
        <mxCell id="XDs6qOpa_2APzOStyn8Z-96" value="" style="ellipse;shape=cloud;whiteSpace=wrap;html=1;strokeWidth=2;" parent="XDs6qOpa_2APzOStyn8Z-95" vertex="1">
          <mxGeometry x="28" width="103.5" height="69" as="geometry" />
        </mxCell>
        <mxCell id="XDs6qOpa_2APzOStyn8Z-97" value="&lt;span style=&quot;font-size: 15px;&quot;&gt;Confirmação de Conclusão&lt;/span&gt;" style="text;whiteSpace=wrap;html=1;labelBackgroundColor=none;align=center;" parent="XDs6qOpa_2APzOStyn8Z-95" vertex="1">
          <mxGeometry y="67.44999999999999" width="166" height="30.28" as="geometry" />
        </mxCell>
        <mxCell id="XDs6qOpa_2APzOStyn8Z-98" style="edgeStyle=orthogonalEdgeStyle;rounded=0;orthogonalLoop=1;jettySize=auto;html=1;exitX=0.75;exitY=1;exitDx=0;exitDy=0;entryX=0.5;entryY=0;entryDx=0;entryDy=0;entryPerimeter=0;" parent="1" source="XDs6qOpa_2APzOStyn8Z-97" target="XDs6qOpa_2APzOStyn8Z-90" edge="1">
          <mxGeometry relative="1" as="geometry" />
        </mxCell>
        <mxCell id="XDs6qOpa_2APzOStyn8Z-99" style="edgeStyle=orthogonalEdgeStyle;rounded=0;orthogonalLoop=1;jettySize=auto;html=1;exitX=0.25;exitY=1;exitDx=0;exitDy=0;entryX=0.5;entryY=0;entryDx=0;entryDy=0;" parent="1" source="XDs6qOpa_2APzOStyn8Z-97" target="Of0nD8nqhDQsk5s1kzBt-55" edge="1">
          <mxGeometry relative="1" as="geometry">
            <mxPoint x="111.49500000000012" y="604.1799999999998" as="targetPoint" />
          </mxGeometry>
        </mxCell>
        <mxCell id="XDs6qOpa_2APzOStyn8Z-106" style="edgeStyle=orthogonalEdgeStyle;rounded=0;orthogonalLoop=1;jettySize=auto;html=1;exitX=0.31;exitY=0.8;exitDx=0;exitDy=0;exitPerimeter=0;entryX=0.4;entryY=0.1;entryDx=0;entryDy=0;entryPerimeter=0;" parent="1" source="XDs6qOpa_2APzOStyn8Z-57" target="XDs6qOpa_2APzOStyn8Z-58" edge="1">
          <mxGeometry relative="1" as="geometry" />
        </mxCell>
        <mxCell id="XDs6qOpa_2APzOStyn8Z-110" style="edgeStyle=orthogonalEdgeStyle;rounded=0;orthogonalLoop=1;jettySize=auto;html=1;exitX=0.16;exitY=0.55;exitDx=0;exitDy=0;exitPerimeter=0;entryX=0.5;entryY=0;entryDx=0;entryDy=0;" parent="1" source="XDs6qOpa_2APzOStyn8Z-57" target="XDs6qOpa_2APzOStyn8Z-55" edge="1">
          <mxGeometry relative="1" as="geometry" />
        </mxCell>
        <mxCell id="XDs6qOpa_2APzOStyn8Z-111" style="edgeStyle=orthogonalEdgeStyle;rounded=0;orthogonalLoop=1;jettySize=auto;html=1;exitX=0.875;exitY=0.5;exitDx=0;exitDy=0;exitPerimeter=0;entryX=0.625;entryY=0.2;entryDx=0;entryDy=0;entryPerimeter=0;" parent="1" source="XDs6qOpa_2APzOStyn8Z-57" target="XDs6qOpa_2APzOStyn8Z-96" edge="1">
          <mxGeometry relative="1" as="geometry" />
        </mxCell>
        <mxCell id="XDs6qOpa_2APzOStyn8Z-156" style="edgeStyle=orthogonalEdgeStyle;rounded=0;orthogonalLoop=1;jettySize=auto;html=1;exitX=0.8;exitY=0.8;exitDx=0;exitDy=0;exitPerimeter=0;entryX=0.5;entryY=0;entryDx=0;entryDy=0;" parent="1" source="XDs6qOpa_2APzOStyn8Z-57" target="XDs6qOpa_2APzOStyn8Z-170" edge="1">
          <mxGeometry relative="1" as="geometry">
            <mxPoint x="-11.599999999999909" y="444.9000000000001" as="targetPoint" />
          </mxGeometry>
        </mxCell>
        <mxCell id="XDs6qOpa_2APzOStyn8Z-172" style="edgeStyle=orthogonalEdgeStyle;rounded=0;orthogonalLoop=1;jettySize=auto;html=1;exitX=1;exitY=0.5;exitDx=0;exitDy=0;entryX=0.16;entryY=0.55;entryDx=0;entryDy=0;entryPerimeter=0;" parent="1" source="XDs6qOpa_2APzOStyn8Z-170" target="XDs6qOpa_2APzOStyn8Z-96" edge="1">
          <mxGeometry relative="1" as="geometry" />
        </mxCell>
        <mxCell id="XDs6qOpa_2APzOStyn8Z-173" value="&lt;font style=&quot;font-size: 15px;&quot;&gt;[]&amp;gt;&amp;gt;&lt;/font&gt;" style="edgeLabel;html=1;align=center;verticalAlign=middle;resizable=0;points=[];" parent="XDs6qOpa_2APzOStyn8Z-172" vertex="1" connectable="0">
          <mxGeometry x="-0.1171" y="-1" relative="1" as="geometry">
            <mxPoint x="-1" y="1" as="offset" />
          </mxGeometry>
        </mxCell>
        <mxCell id="Of0nD8nqhDQsk5s1kzBt-41" value="" style="strokeWidth=2;html=1;shape=mxgraph.flowchart.multi-document;whiteSpace=wrap;" vertex="1" parent="1">
          <mxGeometry x="-251.5" y="608" width="66.27" height="45.18" as="geometry" />
        </mxCell>
        <mxCell id="Of0nD8nqhDQsk5s1kzBt-42" style="edgeStyle=orthogonalEdgeStyle;rounded=0;orthogonalLoop=1;jettySize=auto;html=1;exitX=1;exitY=0.5;exitDx=0;exitDy=0;exitPerimeter=0;entryX=0;entryY=0.5;entryDx=0;entryDy=0;entryPerimeter=0;" edge="1" parent="1" source="Of0nD8nqhDQsk5s1kzBt-47" target="Of0nD8nqhDQsk5s1kzBt-41">
          <mxGeometry relative="1" as="geometry">
            <mxPoint x="-261.86" y="624" as="targetPoint" />
          </mxGeometry>
        </mxCell>
        <mxCell id="Of0nD8nqhDQsk5s1kzBt-43" value="&lt;span style=&quot;font-size: 15px;&quot;&gt;&amp;gt;&amp;gt;&lt;/span&gt;" style="edgeLabel;html=1;align=center;verticalAlign=middle;resizable=0;points=[];" vertex="1" connectable="0" parent="Of0nD8nqhDQsk5s1kzBt-42">
          <mxGeometry x="-0.147" y="1" relative="1" as="geometry">
            <mxPoint as="offset" />
          </mxGeometry>
        </mxCell>
        <mxCell id="Of0nD8nqhDQsk5s1kzBt-44" style="edgeStyle=orthogonalEdgeStyle;rounded=0;orthogonalLoop=1;jettySize=auto;html=1;exitX=0.75;exitY=1;exitDx=0;exitDy=0;entryX=0.5;entryY=0;entryDx=0;entryDy=0;entryPerimeter=0;" edge="1" parent="1" target="Of0nD8nqhDQsk5s1kzBt-41" source="XDs6qOpa_2APzOStyn8Z-59">
          <mxGeometry relative="1" as="geometry">
            <mxPoint x="-263" y="551" as="sourcePoint" />
          </mxGeometry>
        </mxCell>
        <mxCell id="Of0nD8nqhDQsk5s1kzBt-45" style="edgeStyle=orthogonalEdgeStyle;rounded=0;orthogonalLoop=1;jettySize=auto;html=1;exitX=0.25;exitY=1;exitDx=0;exitDy=0;entryX=0.5;entryY=0;entryDx=0;entryDy=0;entryPerimeter=0;" edge="1" parent="1" target="Of0nD8nqhDQsk5s1kzBt-47" source="XDs6qOpa_2APzOStyn8Z-59">
          <mxGeometry relative="1" as="geometry">
            <mxPoint x="-347" y="551" as="sourcePoint" />
          </mxGeometry>
        </mxCell>
        <mxCell id="Of0nD8nqhDQsk5s1kzBt-46" value="" style="group" vertex="1" connectable="0" parent="1">
          <mxGeometry x="-456" y="608" width="166" height="78.27999999999997" as="geometry" />
        </mxCell>
        <mxCell id="Of0nD8nqhDQsk5s1kzBt-47" value="" style="strokeWidth=2;html=1;shape=mxgraph.flowchart.multi-document;whiteSpace=wrap;" vertex="1" parent="Of0nD8nqhDQsk5s1kzBt-46">
          <mxGeometry x="47" width="66.27" height="45.18" as="geometry" />
        </mxCell>
        <mxCell id="Of0nD8nqhDQsk5s1kzBt-48" value="&lt;span style=&quot;font-size: 15px;&quot;&gt;Selecionar Vídeo Desejado&lt;/span&gt;" style="text;whiteSpace=wrap;html=1;labelBackgroundColor=none;align=center;" vertex="1" parent="Of0nD8nqhDQsk5s1kzBt-46">
          <mxGeometry y="48" width="166" height="30.28" as="geometry" />
        </mxCell>
        <mxCell id="Of0nD8nqhDQsk5s1kzBt-53" value="&lt;span style=&quot;font-size: 15px;&quot;&gt;Confirmar Escolha&lt;/span&gt;" style="text;whiteSpace=wrap;html=1;labelBackgroundColor=none;align=center;" vertex="1" parent="1">
          <mxGeometry x="-297" y="656" width="166" height="30.28" as="geometry" />
        </mxCell>
        <mxCell id="Of0nD8nqhDQsk5s1kzBt-54" value="" style="group" vertex="1" connectable="0" parent="1">
          <mxGeometry x="-131" y="455" width="166" height="86.73000000000002" as="geometry" />
        </mxCell>
        <mxCell id="XDs6qOpa_2APzOStyn8Z-170" value="" style="rhombus;whiteSpace=wrap;html=1;strokeWidth=2;" parent="Of0nD8nqhDQsk5s1kzBt-54" vertex="1">
          <mxGeometry x="53" width="55" height="55" as="geometry" />
        </mxCell>
        <mxCell id="XDs6qOpa_2APzOStyn8Z-174" value="&lt;span style=&quot;font-size: 15px;&quot;&gt;Processar Vídeo Base&lt;/span&gt;" style="text;whiteSpace=wrap;html=1;labelBackgroundColor=none;align=center;" parent="Of0nD8nqhDQsk5s1kzBt-54" vertex="1">
          <mxGeometry y="56.450000000000045" width="166" height="30.28" as="geometry" />
        </mxCell>
        <mxCell id="XDs6qOpa_2APzOStyn8Z-105" style="edgeStyle=orthogonalEdgeStyle;rounded=0;orthogonalLoop=1;jettySize=auto;html=1;entryX=0;entryY=0.5;entryDx=0;entryDy=0;entryPerimeter=0;exitX=0.9;exitY=0.5;exitDx=0;exitDy=0;exitPerimeter=0;" parent="1" source="Of0nD8nqhDQsk5s1kzBt-55" edge="1" target="XDs6qOpa_2APzOStyn8Z-90">
          <mxGeometry relative="1" as="geometry">
            <mxPoint x="145.13000000000034" y="637.59" as="sourcePoint" />
            <mxPoint x="261.13" y="637.45" as="targetPoint" />
          </mxGeometry>
        </mxCell>
        <mxCell id="XDs6qOpa_2APzOStyn8Z-120" value="&lt;span style=&quot;font-size: 15px;&quot;&gt;&amp;gt;&amp;gt;&lt;/span&gt;" style="edgeLabel;html=1;align=center;verticalAlign=middle;resizable=0;points=[];" parent="XDs6qOpa_2APzOStyn8Z-105" vertex="1" connectable="0">
          <mxGeometry x="-0.1633" y="2" relative="1" as="geometry">
            <mxPoint as="offset" />
          </mxGeometry>
        </mxCell>
      </root>
    </mxGraphModel>
  </diagram>
</mxfile>
